# xmcd
#
# Track frame offsets:
#	210
#	17935
#	35806
#	51996
#	68342
#	82720
#	106108
#	121036
#	139043
#	155176
#	169369
#	189662
#	206517
#	223444
#
# Disc length: 3169 seconds
#
# Revision: 1
# Processed by: cddbd v1.4PL0 Copyright (c) Steve Scherf et al.
# Submitted via: audiograbber 1.81.03
#
DISCID=c80c5f0e
DTITLE=Robert Lowery - Rainin' Down Blues
DYEAR=1900
DGENRE=Blues
TTITLE0=Rock Me Baby
TTITLE1=Too Many Men
TTITLE2=I'm Leaving Here Walking
TTITLE3=Rainin' Down Blues
TTITLE4=Going South
TTITLE5=I Want To Talk To You Darling
TTITLE6=Someday Baby
TTITLE7=Just As Sure As You're Born
TTITLE8=Pack It Up
TTITLE9=Big Hip Woman
TTITLE10=Put Your Hand In Mine
TTITLE11=Lowery's Boogie
TTITLE12=Don't Go Into The Kitchen
TTITLE13=Move That Thing
EXTD=
EXTT0=
EXTT1=
EXTT2=
EXTT3=
EXTT4=
EXTT5=
EXTT6=
EXTT7=
EXTT8=
EXTT9=
EXTT10=
EXTT11=
EXTT12=
EXTT13=
PLAYORDER=
